<?xml version="1.0" encoding="UTF-8" standalone="no"?>
<!DOCTYPE svg PUBLIC "-//W3C//DTD SVG 1.1//EN" "http://www.w3.org/Graphics/SVG/1.1/DTD/svg11.dtd">
<svg width="100%" height="100%" viewBox="0 0 4212 803" version="1.1" xmlns="http://www.w3.org/2000/svg" xmlns:xlink="http://www.w3.org/1999/xlink" xml:space="preserve" xmlns:serif="http://www.serif.com/" style="fill-rule:evenodd;clip-rule:evenodd;stroke-linejoin:round;stroke-miterlimit:2;">
    <g transform="matrix(1.47328,0,0,1.47328,-1129.26,-214.136)">
        <g transform="matrix(1.25063,0,0,1.25063,927.176,-1266.07)">
            <g transform="matrix(589.132,0,0,589.132,312,1527)">
                <path d="M0.249,0.012C0.184,0.012 0.13,-0.003 0.088,-0.034C0.045,-0.065 0.021,-0.106 0.016,-0.157L0.149,-0.157C0.154,-0.136 0.166,-0.12 0.185,-0.107C0.204,-0.094 0.227,-0.088 0.254,-0.088C0.283,-0.088 0.305,-0.093 0.32,-0.104C0.335,-0.115 0.342,-0.128 0.342,-0.143C0.342,-0.156 0.337,-0.166 0.326,-0.173C0.315,-0.18 0.296,-0.186 0.269,-0.189C0.259,-0.19 0.246,-0.192 0.23,-0.195C0.214,-0.198 0.201,-0.2 0.191,-0.202C0.164,-0.207 0.139,-0.216 0.116,-0.228C0.093,-0.24 0.075,-0.256 0.062,-0.276C0.048,-0.296 0.041,-0.321 0.041,-0.351C0.041,-0.395 0.057,-0.432 0.091,-0.463C0.124,-0.493 0.172,-0.508 0.235,-0.508C0.298,-0.508 0.349,-0.494 0.386,-0.466C0.423,-0.438 0.444,-0.399 0.449,-0.348L0.323,-0.348C0.321,-0.368 0.312,-0.383 0.295,-0.393C0.278,-0.403 0.258,-0.408 0.236,-0.408C0.21,-0.408 0.19,-0.403 0.176,-0.394C0.162,-0.384 0.155,-0.372 0.155,-0.358C0.155,-0.334 0.177,-0.318 0.221,-0.31C0.228,-0.309 0.236,-0.308 0.247,-0.307C0.257,-0.305 0.268,-0.303 0.279,-0.302C0.29,-0.3 0.299,-0.298 0.306,-0.297C0.325,-0.294 0.344,-0.29 0.363,-0.284C0.382,-0.278 0.399,-0.27 0.414,-0.26C0.429,-0.249 0.44,-0.235 0.45,-0.218C0.459,-0.201 0.463,-0.179 0.463,-0.154C0.463,-0.121 0.455,-0.092 0.438,-0.068C0.421,-0.043 0.397,-0.023 0.366,-0.009C0.334,0.005 0.295,0.012 0.249,0.012Z" style="fill:white;fill-rule:nonzero;"/>
            </g>
            <g transform="matrix(589.132,0,0,589.132,593.605,1527)">
                <path d="M0.243,-0C0.21,-0 0.182,-0.004 0.159,-0.012C0.135,-0.019 0.118,-0.034 0.107,-0.057C0.096,-0.079 0.09,-0.111 0.09,-0.153L0.09,-0.387L0.005,-0.387L0.005,-0.496L0.09,-0.496L0.09,-0.629L0.22,-0.629L0.22,-0.496L0.345,-0.496L0.345,-0.387L0.22,-0.387L0.22,-0.169C0.22,-0.152 0.222,-0.14 0.225,-0.132C0.228,-0.123 0.235,-0.118 0.244,-0.115C0.253,-0.112 0.266,-0.111 0.282,-0.111L0.342,-0.111L0.342,-0L0.243,-0Z" style="fill:white;fill-rule:nonzero;"/>
            </g>
            <g transform="matrix(589.132,0,0,589.132,802.747,1527)">
                <path d="M0.215,0.012C0.158,0.012 0.114,-0.008 0.081,-0.047C0.048,-0.086 0.031,-0.142 0.031,-0.217L0.031,-0.496L0.161,-0.496L0.161,-0.229C0.161,-0.186 0.169,-0.154 0.186,-0.132C0.202,-0.109 0.226,-0.098 0.257,-0.098C0.292,-0.098 0.32,-0.111 0.339,-0.136C0.358,-0.161 0.368,-0.195 0.368,-0.24L0.368,-0.496L0.498,-0.496L0.498,-0L0.368,-0L0.368,-0.073C0.353,-0.047 0.333,-0.026 0.308,-0.011C0.283,0.004 0.252,0.012 0.215,0.012Z" style="fill:white;fill-rule:nonzero;"/>
            </g>
            <g transform="matrix(589.132,0,0,589.132,1119.7,1527)">
                <path d="M0.041,-0L0.041,-0.496L0.171,-0.496L0.171,-0.421C0.187,-0.448 0.209,-0.469 0.237,-0.485C0.265,-0.5 0.298,-0.508 0.335,-0.508C0.397,-0.508 0.445,-0.489 0.478,-0.45C0.511,-0.411 0.528,-0.354 0.528,-0.279L0.528,-0L0.398,-0L0.398,-0.267C0.398,-0.31 0.39,-0.342 0.373,-0.365C0.356,-0.387 0.329,-0.398 0.292,-0.398C0.257,-0.398 0.228,-0.386 0.205,-0.361C0.182,-0.335 0.171,-0.301 0.171,-0.256L0.171,-0L0.041,-0Z" style="fill:white;fill-rule:nonzero;"/>
            </g>
            <g transform="matrix(589.132,0,0,589.132,1454.92,1527)">
                <path d="M0.281,0.012C0.23,0.012 0.186,0.001 0.147,-0.021C0.108,-0.042 0.078,-0.072 0.056,-0.111C0.034,-0.149 0.023,-0.193 0.023,-0.244C0.023,-0.295 0.034,-0.341 0.056,-0.381C0.077,-0.421 0.107,-0.452 0.146,-0.475C0.185,-0.497 0.23,-0.508 0.281,-0.508C0.33,-0.508 0.374,-0.497 0.411,-0.476C0.448,-0.455 0.478,-0.426 0.499,-0.389C0.52,-0.352 0.53,-0.311 0.53,-0.264L0.53,-0.242C0.53,-0.234 0.529,-0.226 0.528,-0.217L0.117,-0.217L0.117,-0.297L0.399,-0.297C0.397,-0.329 0.385,-0.355 0.363,-0.374C0.341,-0.393 0.314,-0.403 0.282,-0.403C0.258,-0.403 0.236,-0.398 0.216,-0.387C0.196,-0.376 0.18,-0.361 0.169,-0.34C0.157,-0.319 0.151,-0.292 0.151,-0.259L0.151,-0.231C0.151,-0.203 0.157,-0.179 0.168,-0.158C0.179,-0.137 0.195,-0.122 0.214,-0.111C0.233,-0.099 0.255,-0.094 0.28,-0.094C0.305,-0.094 0.327,-0.1 0.344,-0.111C0.361,-0.122 0.375,-0.137 0.384,-0.156L0.516,-0.156C0.507,-0.125 0.491,-0.096 0.47,-0.071C0.448,-0.045 0.421,-0.025 0.389,-0.01C0.357,0.005 0.321,0.012 0.281,0.012Z" style="fill:white;fill-rule:nonzero;"/>
            </g>
            <g transform="matrix(589.132,0,0,589.132,1783.06,1527)">
                <path d="M0.288,0.012C0.238,0.012 0.193,0.001 0.153,-0.021C0.113,-0.043 0.081,-0.074 0.058,-0.113C0.035,-0.152 0.023,-0.197 0.023,-0.248C0.023,-0.299 0.035,-0.345 0.058,-0.384C0.081,-0.423 0.113,-0.453 0.154,-0.475C0.194,-0.497 0.239,-0.508 0.288,-0.508C0.338,-0.508 0.383,-0.497 0.423,-0.475C0.463,-0.453 0.495,-0.423 0.518,-0.384C0.541,-0.345 0.553,-0.299 0.553,-0.248C0.553,-0.197 0.541,-0.152 0.518,-0.113C0.495,-0.074 0.463,-0.043 0.423,-0.021C0.383,0.001 0.338,0.012 0.288,0.012ZM0.288,-0.1C0.312,-0.1 0.334,-0.106 0.354,-0.117C0.374,-0.128 0.39,-0.144 0.402,-0.166C0.413,-0.188 0.419,-0.215 0.419,-0.248C0.419,-0.281 0.413,-0.308 0.401,-0.33C0.389,-0.352 0.373,-0.369 0.354,-0.38C0.334,-0.391 0.312,-0.396 0.289,-0.396C0.265,-0.396 0.243,-0.39 0.223,-0.379C0.203,-0.368 0.187,-0.351 0.175,-0.33C0.163,-0.308 0.157,-0.281 0.157,-0.248C0.157,-0.215 0.163,-0.188 0.175,-0.166C0.186,-0.144 0.202,-0.128 0.222,-0.117C0.242,-0.106 0.264,-0.1 0.288,-0.1Z" style="fill:white;fill-rule:nonzero;"/>
            </g>
        </g>
        <g transform="matrix(0.618705,0,0,0.618705,535.565,133.977)">
            <path d="M809,97C1019.83,97 1191,266.152 1191,474.5C1191,682.848 1019.83,852 809,852C598.168,852 427,682.848 427,474.5C427,266.152 598.168,97 809,97ZM934.374,324.193C826.618,231.657 609.537,306.578 571.735,350.596C533.934,394.615 741.392,325.481 849.147,418.017C956.903,510.553 924.413,729.941 962.214,685.923C1000.02,641.904 1042.13,416.729 934.374,324.193ZM818.941,448.452C732.957,374.612 573.014,418.931 546.737,449.531C520.46,480.13 673.436,439.597 759.421,513.437C845.406,587.277 832.046,747.707 858.323,717.107C884.601,686.508 904.926,522.291 818.941,448.452Z" style="fill:white;"/>
        </g>
    </g>
</svg>
